<svg width="128" height="128" viewBox="7.023 6.523 113.953 113.953" fill="none" xmlns="http://www.w3.org/2000/svg">
<path d="M113 34.0779C113 32.2405 111.167 30.5423 108.121 28.8023L85.3236 15.6413C84.6566 15.2223 83.8847 15 83.0968 15C82.3088 15 81.5369 15.2223 80.87 15.6413L16.1151 52.9738C15.4739 53.3357 15 53.7045 15 54.2544C15.0074 54.3873 15.0415 54.5174 15.1001 54.6369C15.1588 54.7565 15.2409 54.8631 15.3415 54.9504H15.1464V88.3575C15.1464 90 16.5403 90.8143 17.0979 91.1414L48.2103 109.077C51.6951 111.074 54.7478 112 57.8841 112C61.0205 112 64.1011 111.074 67.558 109.077L88.0417 97.2452C89.9584 96.1386 92.0771 94.7048 93.0529 92.8048H93.2062V92.4986C93.4594 91.9237 93.5922 91.3032 93.5965 90.6751C93.593 90.0119 93.4481 89.3571 93.1714 88.7542L93.1226 83.764L107.306 75.5932C109.892 74.1038 112.882 72.0019 112.882 68.9883V35.5812H112.603C112.858 35.1208 112.995 34.6041 113 34.0779ZM83.4069 25.1832L98.5241 33.8969L78.1588 45.6312L63.0208 36.9175L83.4069 25.1832ZM53.8209 42.2417L78.4794 56.4606L57.3196 68.6542L32.661 54.4423L53.8209 42.2417ZM86.2715 94.2177L65.7877 106.049C62.8883 107.72 60.3793 108.499 57.8841 108.499C55.389 108.499 52.8799 107.72 49.9806 106.049L18.8681 88.093L18.6869 87.9817V57.0035L48.4891 74.1873C51.5139 75.9273 54.4551 76.9712 57.6332 76.9712C60.8114 76.9712 63.7595 75.9133 66.7844 74.1873L88.1114 61.9171C88.5645 61.6527 88.9826 61.3951 89.3799 61.1307L89.6657 91.6147C88.7104 92.6901 87.5584 93.5736 86.2715 94.2177ZM105.536 72.5378L93.0878 79.7134L92.8787 57.268C92.9279 57.0628 92.9536 56.8526 92.9553 56.6416C92.9553 54.8042 91.1223 53.106 88.0766 51.366L87.6793 51.1364L108.121 39.3534C108.532 39.1098 108.923 38.8732 109.285 38.6574V69.0231C109.313 69.5312 108.825 70.6378 105.536 72.5378Z" fill="#000"/>
</svg>
