<svg viewBox="0 0 400 400" xmlns="http://www.w3.org/2000/svg" style="fill-rule:evenodd;clip-rule:evenodd;">
  <g transform="matrix(1.275986,0,0,1.275986,25.706093,23.448029)">
    <path d="M14.074,279.114C13.318,279.509 8.767,281.887 3.421,279.635C2.579,279.28 2.669,278.904 2.669,24.5C2.669,4.587 1.814,2.448 5.499,2.435C179.793,1.826 179.896,1.557 194.614,5.066C262.486,21.247 288.277,95.745 260.701,137.621C257.752,142.099 257.841,142.666 260.859,147.259C263.785,151.711 279.344,175.386 266.756,213.594C247.368,272.441 195.008,276.702 186.541,278.699C178.015,280.71 94.972,279.93 94.555,279.434C94.034,278.817 93.998,270.149 94.229,269.399C95.39,265.632 169.451,271.215 190.442,266.249C259.128,250.002 261.631,185.634 259.857,176.429C253.549,143.695 243.132,145.486 246.386,140.423C247.283,139.027 248.27,137.69 249.167,136.294C283.119,83.452 233.819,14.462 175.489,13.94C162.638,13.825 16.246,12.516 14.845,14.73C13.761,16.443 15.227,274.031 14.074,279.114ZM26.963,278.522C27.272,267.66 26.766,28.605 27.227,27.366C27.753,25.952 28.482,26.431 128.5,26.457C173.59,26.469 196.161,23.591 220.68,44.288C223.986,47.078 245.944,65.612 247.016,91.508C247.779,109.933 246.331,121.297 232.851,138.751C230.026,142.408 231.777,142.818 234.705,146.331C256.413,172.374 249.4,216.615 218.751,239.85C196.96,256.369 176.225,255.789 163.5,255.789C95.393,255.79 95.252,255.852 94.668,255.318C94.024,254.73 94.105,247.19 94.112,246.482C94.145,243.397 96.09,244.099 116.501,244.103C182.472,244.116 192.497,246.288 212.852,229.912C241.251,207.064 239.688,175.148 228.034,153.76C222.846,144.239 215.579,144.552 220.182,139.242C222.328,136.767 236.237,120.724 236.042,101.493C235.874,84.824 232.394,74.825 222.936,63.124C220.145,59.672 202.227,37.506 173.497,37.936C149.33,38.297 41.038,37.509 39.4,38.373C37.549,39.351 39.764,277.034 38.216,279.251C36.995,281 36.519,280.041 27.49,279.513L26.963,278.522ZM51.626,279.354C51.167,277.508 51.113,277.57 51.129,55.5C51.129,48.978 53.984,50.67 60.5,50.676C70.472,50.684 176.726,51.016 178.522,51.134C183.822,51.485 222.484,60.31 223.02,99.499C223.467,132.162 197.046,141.526 197.97,143.351C200.198,147.745 223.367,147.511 223.017,183.497C222.759,210.019 205.362,220.989 196.65,225.788C184.604,232.422 179.685,231.511 100.5,231.516C98.712,231.516 94.205,232.254 94.122,229.547C94.068,227.816 92.944,220.091 96.476,220.052C171.172,219.224 186.982,225.143 203.876,205.832C215.712,192.303 218.284,155.978 181.581,149.155C176.43,148.198 95.912,149.668 94.615,148.384C94.256,148.028 92.36,137.214 96.484,137.168C166.567,136.372 180.182,140.851 196.301,130.198C220.774,114.023 216.631,72.11 180.593,63.139C171.492,60.874 88.867,62.563 66.502,61.958C61.927,61.834 62.858,64.318 62.858,89.5C62.858,278.663 63.012,279.367 61.614,279.818C60.853,280.064 57.543,281.132 51.626,279.354ZM75.817,279.19C74.913,275.535 75.146,76.357 75.694,75.657C76.758,74.299 142.916,75.426 171.498,74.969C202.828,74.469 205.41,111.472 189.318,120.186C179.725,125.381 179.122,124.747 98.5,124.747C92.108,124.747 93.936,121.845 94.112,115.487C94.198,112.401 95.873,113.06 120.5,113.06C178.018,113.06 178.474,113.368 182.437,110.414C188.819,105.656 193.468,86.867 170.5,86.449C170.112,86.442 90.534,86.446 90.5,86.447C87.646,86.525 86.968,86.601 86.929,89.504C86.687,107.519 87.455,274.472 86.508,279.51C79.561,279.916 79.426,280.794 75.817,279.19ZM99.5,171.966C99.058,171.97 94.249,172.019 94.158,170.579C93.962,167.452 93.67,160.784 95.506,160.527C96.315,160.413 171.488,160.458 174.488,160.642C210.176,162.83 197.887,195.294 194.165,199.195C184.559,209.265 182.37,206.513 96.511,207.029C92.534,207.053 93.653,196.409 95.375,196.114C101.786,195.014 172.849,198.206 181.288,194.056C189.939,189.803 191.696,172.289 174.503,172.036C171.008,171.984 106.817,172.134 99.5,171.966Z"/>
  </g>
</svg>
