<svg xmlns="http://www.w3.org/2000/svg" viewBox="7.77 7.74 49.36 49.36"><path d="m49.145 18.3-2.797 7.075H37.52l-.813 4.313h8.566l-2.796 7.039-6.977.02-2.316 11.37-13.77-.93 14.11-.93-15.512-.929 15.851-.937-21.93-.942 22.305-.926-18.086-.941 18.434-.926-21.375-.93 21.746-.94-18.902-.927 19.238-.93-25.914-.94 26.266-.926-19.454-.93 19.82-.93-15.515-.93 15.856-.93-23.52-.929 23.856-.715-14.063-1.14 14.43-.93-25.364-.93 25.704-1.344-16.801-.582 17.168-.93-21.707-.925 22.047-.93-19.067-.93 19.434-.93-15.504-.937 10.558-.601c4.77-.27 14.043-.367 15.622-.29" fill="black"/></svg>
