<?xml version="1.0" encoding="UTF-8" standalone="no"?>
<!DOCTYPE svg PUBLIC "-//W3C//DTD SVG 1.1//EN" "http://www.w3.org/Graphics/SVG/1.1/DTD/svg11.dtd">
<svg width="100%" height="100%" viewBox="0 0 2084 2084" version="1.1" xmlns="http://www.w3.org/2000/svg" xmlns:xlink="http://www.w3.org/1999/xlink" xml:space="preserve" xmlns:serif="http://www.serif.com/" style="fill-rule:evenodd;clip-rule:evenodd;stroke-linejoin:round;stroke-miterlimit:2;">
    <g id="Page-1" serif:id="Page 1" transform="matrix(2.083333,0,0,2.083333,0,0)">
        <rect x="0" y="0" width="1000" height="1000" style="fill:none;"/>
        <g transform="matrix(2,0,0,2,179.076967,441.72126)">
            <g id="Layer-1" serif:id="Layer 1">
                <path d="M0,58.216L-17.341,57.665L-17.547,174.441C-17.685,205.476 3.922,227.152 34.475,227.221C116.776,227.221 205.751,226.533 289.153,227.29C312.824,227.496 338.148,206.715 338.148,178.157L338.216,57.597C334.294,57.184 323.49,58.354 318.054,58.216C309.384,58.009 305.461,55.257 298.167,54.706L298.098,171.62C298.098,189.511 291.355,186.071 276.078,186.071C204.237,186.071 132.396,185.727 60.624,186.69L36.333,186.552C19.405,186.552 22.364,178.295 22.295,156.687L22.502,54.844C15.552,54.775 9.978,58.216 0,58.216ZM52.229,-4.679C56.152,2.753 56.083,14.52 70.121,25.874C100.261,50.234 139.003,38.879 152.972,13.006C154.83,9.565 159.371,-3.372 160.403,-4.748C164.532,2.409 164.326,12.937 178.501,25.805C207.403,51.885 258.049,40.393 268.371,-4.886L271.193,1.17C274.702,12.593 279.863,19.887 289.29,27.801C324.936,57.734 385.285,27.25 377.165,-24.016C376.133,-30.622 362.852,-69.501 359.893,-79.135C354.456,-96.751 347.782,-115.95 342.552,-133.635C337.047,-151.939 332.505,-168.523 305.049,-168.799C256.948,-169.28 208.573,-168.799 160.403,-168.799C112.234,-168.799 63.996,-169.005 15.758,-168.799C5.574,-168.73 -4.748,-164.945 -10.253,-159.44C-16.997,-152.559 -18.58,-144.163 -21.607,-134.53C-27.319,-115.95 -33.168,-97.921 -39.155,-79.341C-42.32,-69.639 -54.982,-31.792 -56.22,-24.36C-63.377,19.818 -18.924,51.747 19.199,35.026C33.237,28.902 45.141,16.171 49.477,1.858C50.646,-2.133 50.165,-2.821 52.229,-4.679Z" style="fill:#fff;"/>
            </g>
        </g>
    </g>
</svg>
