<svg xmlns="http://www.w3.org/2000/svg" width="512" height="512" viewBox="23.442 23.442 465.116 465.116">
  <path fill-rule="evenodd" fill="#fff" d="M75.2,56.0 H436.8 A19.2,19.2 0 0 1 456.0,75.2 V436.8 A19.2,19.2 0 0 1 436.8,456.0 H75.2 A19.2,19.2 0 0 1 56.0,436.8 V75.2 A19.2,19.2 0 0 1 75.2,56.0 Z M 216.45311271975186,178.1152709359606 C 216.41476732161328,178.1793103448276 216.19747673216136,178.25615763546799 215.96740434332992,178.2945812807882 C 215.73733195449847,178.3458128078818 215.2260599793175,178.43546798029558 214.8426059979318,178.51231527093597 C 214.45915201654606,178.58916256157636 213.653898655636,178.70443349753697 213.0531540847984,178.74285714285716 C 212.45240951396073,178.79408866995075 211.8516649431231,178.90935960591133 211.6982833505688,178.98620689655175 C 211.1103205791107,179.31921182266012 210.26672182006206,179.5369458128079 209.49981385729063,179.5369458128079 C 208.89906928645297,179.5369458128079 208.68177869700105,179.5881773399015 208.61786970010343,179.72906403940888 C 208.5028335056877,180.06206896551726 207.86374353671152,180.30541871921184 207.14796277145814,180.30541871921184 C 206.58556359875908,180.31822660098524 206.3938366080662,180.38226600985223 206.02316442606002,180.6896551724138 C 205.78031023784905,180.9073891625616 205.47354705274046,181.07389162561577 205.32016546018616,181.07389162561577 C 204.94949327817997,181.07389162561577 204.25927611168567,181.34285714285716 203.58184074457085,181.75270935960592 C 203.26229576008276,181.9448275862069 202.84049638055848,182.09852216748772 202.66155118924513,182.09852216748772 C 202.4442605997932,182.09852216748772 202.2780972078594,182.2009852216749 202.1758428128232,182.38029556650247 C 201.98411582213032,182.75172413793106 201.8179524301965,182.86699507389164 201.42171664943126,182.86699507389164 C 201.24277145811791,182.87980295566504 200.89766287487078,183.04630541871924 200.6548086866598,183.2512315270936 C 200.41195449844884,183.4689655172414 200.11797311271977,183.63546798029557 200.00293691830404,183.63546798029557 C 199.88790072388832,183.63546798029557 199.72173733195453,183.7251231527094 199.63226473629786,183.82758620689657 C 199.42775594622546,184.07093596059116 197.5999586349535,185.17241379310346 197.3826680455016,185.17241379310346 C 197.29319544984492,185.17241379310346 197.08868665977252,185.33891625615766 196.9225232678387,185.54384236453203 C 196.75635987590488,185.74876847290642 196.50072388831438,185.9793103448276 196.3345604963806,186.056157635468 C 195.06916235780767,186.72216748768474 189.61133402275078,191.55073891625617 188.90833505687698,192.6394088669951 C 188.78051706308173,192.83152709359607 188.15420889348502,193.53596059113303 187.52790072388834,194.17635467980298 C 186.88881075491213,194.82955665024633 186.27528438469494,195.54679802955667 186.16024819027922,195.77733990147786 C 186.04521199586353,196.00788177339902 185.90461220268875,196.18719211822662 185.84070320579113,196.18719211822662 C 185.7767942088935,196.18719211822662 185.61063081695968,196.37931034482762 185.45724922440542,196.59704433497538 C 184.984322647363,197.33990147783254 184.21741468459155,198.36453201970446 184.01290589451915,198.53103448275863 C 183.89786970010343,198.60788177339904 183.78283350568773,198.8384236453202 183.73170630816963,199.0177339901478 C 183.69336091003106,199.19704433497537 183.51441571871771,199.41477832512317 183.33547052740437,199.49162561576355 C 183.15652533609102,199.58128078817737 183.01592554291625,199.74778325123154 183.01592554291625,199.88866995073894 C 183.01592554291625,200.02955665024632 182.84976215098243,200.3369458128079 182.64525336091006,200.5674876847291 C 182.4535263702172,200.79802955665025 182.15954498448812,201.22068965517244 182.01894519131338,201.51527093596061 C 181.8783453981386,201.7970443349754 181.66105480868669,202.10443349753697 181.54601861427096,202.20689655172416 C 181.43098241985524,202.30935960591134 181.21369183040332,202.61674876847292 181.07309203722855,202.8985221674877 C 180.3573112719752,204.29458128078818 179.87160289555328,204.66600985221677 179.37311271975182,204.1793103448276 C 178.95131334022753,203.74384236453204 179.2452947259566,194.18916256157638 179.7310031023785,192.83152709359607 C 179.92273009307138,192.30640394088672 179.94829369183043,191.62758620689658 179.92273009307138,186.68374384236455 L 179.8843846949328,181.13793103448276 L 156.39143743536712,181.09950738916257 C 140.3374974146846,181.08669950738917 132.82179937952432,181.11231527093597 132.64285418821098,181.20197044334978 C 132.22105480868666,181.43251231527094 132.25940020682523,333.24433497536944 132.69398138572907,333.69261083743845 C 132.9751809720786,334.0 132.9751809720786,334.0 156.45534643226475,334.0 L 179.94829369183043,334.0 L 179.99942088934853,293.0403940886699 C 180.06332988624615,252.02955665024632 180.10167528438473,248.2768472906404 180.4595656670114,247.67487684729065 C 180.60016546018616,247.43152709359606 180.6768562564633,246.75270935960592 180.7279834539814,244.98522167487687 C 180.80467425025856,242.59014778325124 180.90692864529476,241.8600985221675 181.22647362978284,241.27093596059115 C 181.32872802481904,241.09162561576358 181.4565460186143,240.5793103448276 181.49489141675286,240.11822660098522 C 181.6227094105481,238.95270935960593 181.80165460186146,238.22266009852217 182.01894519131338,237.9665024630542 C 182.13398138572907,237.8512315270936 182.2490175801448,237.56945812807882 182.28736297828337,237.36453201970443 C 182.5046535677353,236.19901477832514 182.63247156153054,235.84039408866997 182.9392347466391,235.520197044335 C 183.16930713547055,235.2896551724138 183.27156153050674,235.03349753694584 183.27156153050674,234.72610837438424 C 183.27156153050674,234.45714285714286 183.42494312306104,234.0729064039409 183.6550155118925,233.72709359605912 C 183.87230610134438,233.41970443349754 184.0384694932782,233.06108374384237 184.0384694932782,232.93300492610837 C 184.0384694932782,232.8049261083744 184.20463288521202,232.5103448275862 184.40914167528442,232.27980295566505 C 184.60086866597726,232.04926108374386 184.86928645294728,231.65221674876847 184.99710444674253,231.4088669950739 C 185.12492244053777,231.16551724137932 185.38055842812827,230.78128078817736 185.55950361944159,230.55073891625617 C 185.73844881075493,230.32019704433498 186.07077559462257,229.89753694581282 186.27528438469494,229.60295566502464 C 186.93993795243023,228.6423645320197 189.22788004136507,226.41379310344828 189.52186142709414,226.41379310344828 C 189.68802481902793,226.41379310344828 189.85418821096175,226.28571428571428 189.94366080661842,226.0935960591133 C 190.02035160289557,225.9142857142857 190.2376421923475,225.73497536945814 190.41658738366084,225.69655172413795 C 190.5955325749742,225.64532019704433 190.83838676318513,225.50443349753695 190.94064115822133,225.36354679802957 C 191.05567735263705,225.2354679802956 191.33687693898656,225.056157635468 191.57973112719753,224.9665024630542 C 191.8225853154085,224.8768472906404 192.29551189245092,224.64630541871924 192.64062047569806,224.45418719211824 C 192.9729472595657,224.26206896551724 193.5097828335057,223.9546798029557 193.85489141675288,223.7625615763547 C 194.53232678386766,223.36551724137934 195.2353257497415,223.08374384236453 195.58043433298866,223.08374384236453 C 195.7082523267839,223.08374384236453 195.98945191313342,222.98128078817734 196.21952430196487,222.86600985221676 C 196.67966907962773,222.62266009852218 196.98643226473632,222.55862068965519 199.47888314374356,222.05911330049264 C 199.83677352637022,221.99507389162562 200.4502998965874,221.86699507389164 200.82097207859363,221.79014778325126 C 202.2269700103413,221.49556650246308 204.18258531540852,221.3931034482759 208.19607032057914,221.3931034482759 C 212.86142709410552,221.3931034482759 214.29298862461224,221.50837438423645 216.4786763185109,222.04630541871921 C 216.77265770423995,222.1231527093596 217.24558428128233,222.2384236453202 217.52678386763188,222.3152709359606 C 217.80798345398142,222.37931034482762 218.2553464322648,222.4945812807882 218.52376421923478,222.5458128078818 C 218.77940020682527,222.60985221674878 219.1756359875905,222.73793103448276 219.3801447776629,222.85320197044337 C 219.59743536711483,222.95566502463055 220.01923474663914,223.12216748768475 220.33877973112723,223.21182266009853 C 220.65832471561532,223.31428571428575 221.1695966907963,223.5448275862069 221.48914167528443,223.7369458128079 C 221.80868665977255,223.91625615763547 222.49890382626683,224.32610837438426 223.02295760082734,224.6334975369458 C 223.54701137538783,224.94088669950742 224.1221923474664,225.32512315270935 224.30113753877976,225.47881773399016 C 224.4800827300931,225.64532019704433 224.91466390899694,226.00394088669952 225.25977249224408,226.28571428571428 C 225.61766287487077,226.5674876847291 225.93720785935886,226.84926108374384 225.98833505687696,226.90049261083743 C 226.19284384694936,227.10541871921185 227.20260599793178,228.34778325123153 227.56049638055845,228.8472906403941 C 227.77778697001037,229.1290640394089 228.13567735263706,229.60295566502464 228.3657497414685,229.88472906403942 C 228.58304033092043,230.1793103448276 228.77476732161327,230.55073891625617 228.77476732161327,230.73004926108376 C 228.77476732161327,230.90935960591133 228.95371251292661,231.2551724137931 229.15822130299898,231.4985221674877 C 229.3755118924509,231.72906403940888 229.54167528438472,232.07487684729065 229.54167528438472,232.25418719211825 C 229.54167528438472,232.62561576354682 229.84843846949332,233.27881773399014 230.06572905894524,233.35566502463055 C 230.27023784901763,233.41970443349754 230.56421923474667,234.34187192118227 230.56421923474667,234.95665024630543 C 230.56421923474667,235.3152709359606 230.6281282316443,235.5330049261084 230.76872802481907,235.60985221674878 C 231.1138366080662,235.80197044334977 231.33112719751813,236.6472906403941 231.33112719751813,237.76157635467982 C 231.33112719751813,238.50443349753695 231.38225439503623,238.85024630541875 231.51007238883147,238.95270935960593 C 231.94465356773532,239.3241379310345 232.0980351602896,240.29753694581282 232.0980351602896,242.83349753694583 C 232.0980351602896,244.86995073891626 232.1363805584282,245.40788177339903 232.32810754912103,245.88177339901478 C 232.53261633919342,246.41970443349754 232.54539813857295,249.07093596059116 232.62208893485007,289.8128078817734 C 232.66043433298864,313.66108374384237 232.7371251292658,333.35960591133005 232.7882523267839,333.57733990147784 C 232.9544157187177,334.2433497536946 279.50572905894524,334.2433497536946 279.7485832471562,333.57733990147784 C 279.8636194415719,333.24433497536944 279.9019648397105,323.16453201970444 279.9019648397105,289.56945812807885 C 279.9019648397105,242.73103448275862 279.87640124095145,245.10049261083745 280.4899276111686,244.5881773399015 C 280.6305274043434,244.4729064039409 280.6688728024819,244.0374384236453 280.6688728024819,242.71822660098525 C 280.6688728024819,241.00197044334976 280.8478179937953,240.20788177339904 281.30796277145816,239.92610837438423 C 281.3718717683558,239.88768472906406 281.4357807652534,239.50344827586207 281.4357807652534,239.0807881773399 C 281.4357807652534,238.24827586206897 281.7297621509825,237.14679802955666 282.02374353671155,236.90344827586208 C 282.12599793174775,236.8266009852217 282.2026887280249,236.5704433497537 282.2026887280249,236.3527093596059 C 282.2026887280249,235.89162561576356 282.53501551189254,234.89261083743844 282.765087900724,234.61083743842366 C 282.8673422957601,234.50837438423645 282.9695966907963,234.27783251231529 283.0079420889349,234.09852216748772 C 283.059069286453,233.91921182266012 283.28914167528444,233.45812807881777 283.54477766287494,233.07389162561577 C 283.78763185108585,232.6896551724138 283.99214064115824,232.27980295566505 283.99214064115824,232.16453201970444 C 283.99214064115824,231.97241379310344 284.2222130299897,231.6394088669951 285.19362978283357,230.44827586206898 C 285.3597931747674,230.2305418719212 285.60264736297836,229.84630541871923 285.7304653567736,229.59014778325124 C 285.8455015511893,229.33399014778325 286.0755739400207,229.06502463054187 286.24173733195454,229.0009852216749 C 286.39511892450884,228.9241379310345 286.56128231644266,228.7448275862069 286.61240951396076,228.60394088669952 C 286.65075491209933,228.46305418719214 286.8041365046536,228.30935960591134 286.9447362978284,228.27093596059115 C 287.07255429162365,228.21970443349755 287.27706308169604,228.04039408866996 287.36653567735266,227.848275862069 C 287.77555325749745,227.05418719211823 291.8529472595657,224.10837438423647 292.53038262668053,224.10837438423647 C 292.61985522233715,224.10837438423647 292.9010548086867,223.96748768472906 293.1694725956567,223.7881773399015 C 293.4251085832472,223.6216748768473 294.0002895553258,223.36551724137934 294.43487073422966,223.22463054187193 C 294.86945191313345,223.08374384236453 295.3679420889349,222.90443349753696 295.5213236814892,222.81477832512317 C 295.8153050672182,222.66108374384237 296.224322647363,222.5458128078818 297.4513753877974,222.3024630541872 C 298.43557394002073,222.11034482758623 299.29195449844883,221.94384236453203 300.0077352637022,221.79014778325126 C 301.41373319544994,221.49556650246308 303.36934850051716,221.3931034482759 307.38283350568776,221.3931034482759 C 312.0737538779732,221.3931034482759 313.4797518097208,221.50837438423645 315.69100310237855,222.05911330049264 C 316.01054808686666,222.13596059113303 316.5218200620476,222.2512315270936 316.84136504653577,222.3024630541872 C 317.78721820062054,222.46896551724137 320.34357807652543,223.4295566502463 320.918759048604,223.8394088669951 C 321.1232678386764,223.99310344827586 321.35334022750783,224.10837438423647 321.430031023785,224.10837438423647 C 321.51950361944165,224.10837438423647 322.2736297828336,224.58226600985222 323.1172285418822,225.15862068965518 C 323.97360910031034,225.74778325123154 324.79164426059987,226.2985221674877 324.94502585315416,226.4009852216749 C 325.0984074457084,226.50344827586207 325.32847983453985,226.73399014778326 325.4435160289556,226.91330049261086 C 325.9292244053775,227.656157635468 326.3254601861428,228.14285714285717 326.5299689762152,228.24532019704435 C 326.6450051706309,228.30935960591134 327.09236814891426,228.8857142857143 327.5141675284385,229.52610837438425 C 328.56227507755955,231.11428571428573 328.71565667011384,231.4216748768473 328.7284384694933,231.81871921182267 C 328.7284384694933,232.04926108374386 328.8306928645295,232.21576354679803 329.02241985522244,232.3182266009852 C 329.41865563598765,232.535960591133 329.4953464322648,232.6768472906404 329.4953464322648,233.31724137931036 C 329.4953464322648,233.75270935960592 329.58481902792147,233.9704433497537 329.87880041365054,234.31625615763548 C 330.2111271975182,234.68768472906405 330.2622543950363,234.84137931034485 330.2622543950363,235.49458128078817 C 330.2622543950363,236.09655172413795 330.32616339193385,236.33990147783254 330.6073629782834,236.7369458128079 C 331.04194415718723,237.37733990147785 331.1697621509825,237.94088669950742 331.2720165460187,239.60591133004925 C 331.31036194415725,240.4 331.425398138573,241.07881773399015 331.52765253360917,241.27093596059115 C 331.962233712513,242.01379310344828 331.9750155118925,242.9743842364532 332.0133609100311,288.4295566502463 L 332.0517063081696,334.0 L 355.6724715615306,334.0 C 379.28045501551196,334.0 379.28045501551196,334.0 379.43383660806626,333.65418719211823 C 379.63834539813865,333.21871921182264 379.6766907962772,244.2167487684729 379.48496380558436,244.02463054187194 C 379.42105480868673,243.94778325123156 379.33158221303006,243.29458128078818 379.29323681489154,242.55172413793105 C 379.24210961737344,241.8088669950739 379.1526370217167,240.28472906403942 379.08872802481915,239.1576354679803 C 379.012037228542,238.03054187192117 378.9097828335058,235.98128078817734 378.8586556359877,234.61083743842366 C 378.79474663909,232.83054187192118 378.7180558428129,232.02364532019706 378.5902378490176,231.79310344827587 C 378.27069286452956,231.24236453201974 378.15565667011384,230.51231527093597 378.10452947259574,228.78325123152712 C 378.06618407445717,227.656157635468 378.00227507755955,227.05418719211823 377.8872388831438,226.92610837438423 C 377.46543950361956,226.43940886699508 377.2992761116857,225.88866995073892 377.2992761116857,224.91527093596062 C 377.2992761116857,223.87783251231528 377.1458945191314,223.25024630541873 376.76244053774565,222.6995073891626 C 376.6090589451914,222.4817733990148 376.53236814891426,222.13596059113303 376.53236814891426,221.61083743842366 C 376.53236814891426,220.80394088669954 376.32785935884186,220.06108374384237 376.02109617373327,219.6896551724138 C 375.9316235780766,219.57438423645323 375.80380558428135,219.20295566502466 375.7398965873838,218.88275862068969 C 375.54816959669085,217.64039408866995 375.4714788004137,217.384236453202 375.3180972078594,217.192118226601 C 375.113588417787,216.96157635467983 374.74291623578085,215.9497536945813 374.74291623578085,215.61674876847292 C 374.74291623578085,215.48866995073894 374.57675284384703,215.05320197044335 374.3594622543951,214.6305418719212 C 374.1549534643227,214.20788177339904 373.97600827300937,213.74679802955666 373.97600827300937,213.60591133004928 C 373.97600827300937,213.4650246305419 373.8098448810756,213.00394088669952 373.5925542916236,212.58128078817737 C 373.38804550155123,212.15862068965518 373.20910031023794,211.71034482758623 373.20910031023794,211.55665024630542 C 373.20910031023794,211.35172413793106 372.4166287487074,209.5330049261084 372.0459565667012,208.86699507389164 C 371.9820475698036,208.76453201970446 371.81588417786975,208.4443349753695 371.6880661840745,208.16256157635468 C 371.56024819027925,207.88078817733992 371.3557394002069,207.44532019704434 371.2407032057912,207.20197044334975 C 371.12566701137547,206.9586206896552 370.9467218200621,206.6128078817734 370.85724922440545,206.43349753694582 C 370.75499482936925,206.25418719211825 370.5888314374355,205.90837438423648 370.4737952430197,205.6650246305419 C 370.1286866597726,204.94778325123153 369.59185108583256,204.07684729064042 369.22117890382634,203.62857142857143 C 369.01667011375395,203.39802955665027 368.8632885211997,203.1290640394089 368.8632885211997,203.01379310344828 C 368.8632885211997,202.9113300492611 368.6971251292658,202.61674876847292 368.47983453981396,202.37339901477833 C 368.27532574974157,202.14285714285717 368.0963805584282,201.8354679802956 368.0963805584282,201.69458128078819 C 368.0963805584282,201.5536945812808 367.9302171664944,201.32315270935962 367.7129265770425,201.15665024630545 C 367.5084177869701,201.00295566502464 367.32947259565674,200.79802955665025 367.32947259565674,200.69556650246307 C 367.32947259565674,200.59310344827588 367.1121820062049,200.2600985221675 366.8565460186144,199.95270935960593 C 366.5881282316443,199.65812807881775 366.2046742502586,199.17142857142858 365.9873836608067,198.864039408867 C 365.7828748707343,198.56945812807882 365.41220268872814,198.13399014778327 365.19491209927617,197.90344827586208 C 364.9648397104447,197.6729064039409 364.7731127197519,197.39113300492613 364.7731127197519,197.27586206896552 C 364.7731127197519,197.17339901477834 364.63251292657714,197.00689655172414 364.4535677352638,196.93004926108375 C 364.27462254395044,196.85320197044337 364.13402275077567,196.73793103448278 364.13402275077567,196.67389162561577 C 364.13402275077567,196.55862068965519 362.8174974146847,195.0857142857143 361.7566080661842,193.984236453202 C 361.5009720785937,193.728078817734 361.2325542916236,193.45911330049262 361.1558634953465,193.36945812807883 C 361.06639089968985,193.29261083743845 360.86188210961745,193.10049261083745 360.69571871768363,192.94679802955667 C 360.5295553257498,192.79310344827587 359.9671561530507,192.28078817733993 359.4558841778698,191.79408866995075 C 358.9446122026888,191.320197044335 358.4716856256464,190.935960591133 358.4077766287488,190.935960591133 C 358.34386763185114,190.935960591133 358.2288314374355,190.79507389162563 358.1521406411583,190.61576354679804 C 358.0754498448812,190.43645320197047 357.89650465356783,190.29556650246306 357.7686866597726,190.29556650246306 C 357.64086866597734,190.29556650246306 357.4107962771459,190.1162561576355 357.2574146845916,189.9113300492611 C 357.0912512926578,189.6935960591133 356.8611789038264,189.52709359605913 356.73336091003114,189.52709359605913 C 356.6055429162359,189.52709359605913 356.4010341261635,189.38620689655173 356.2987797311273,189.21970443349755 C 356.1837435367115,189.05320197044335 355.7875077559463,188.73300492610838 355.4168355739401,188.51527093596061 C 354.80330920372296,188.14384236453205 353.92136504653575,187.5546798029557 352.5664943123062,186.61970443349756 C 352.28529472595665,186.42758620689656 351.86349534643233,186.19704433497537 351.62064115822136,186.120197044335 C 351.3905687693899,186.0305418719212 350.9815511892451,185.7871921182266 350.71313340227516,185.56945812807882 C 350.4319338159256,185.35172413793106 350.1635160289556,185.17241379310346 350.08682523267845,185.17241379310346 C 350.0101344364013,185.17241379310346 349.6778076525337,184.9931034482759 349.3454808686661,184.7881773399015 C 349.01315408479843,184.5704433497537 348.65526370217174,184.40394088669953 348.540227507756,184.40394088669953 C 348.4251913133403,184.40394088669953 348.14399172699075,184.23743842364533 347.90113753877984,184.01970443349757 C 347.6582833505688,183.81477832512317 347.3131747673217,183.64827586206897 347.13422957600835,183.63546798029557 C 346.955284384695,183.63546798029557 346.61017580144784,183.4689655172414 346.36732161323687,183.2512315270936 C 346.0605584281283,183.00788177339902 345.77935884177873,182.87980295566504 345.4853774560497,182.86699507389164 C 345.24252326783875,182.86699507389164 344.7823784901759,182.71330049261084 344.46283350568774,182.52118226600987 C 343.77261633919346,182.1113300492611 343.09518097207865,181.84236453201973 342.69894519131344,181.84236453201973 C 342.54556359875914,181.84236453201973 342.3538366080662,181.73990147783252 342.28992761116865,181.59901477832514 C 342.1621096173734,181.36847290640395 341.9448190279215,181.30443349753696 340.6922026887281,181.11231527093597 C 340.4110031023786,181.07389162561577 339.92529472595663,180.8817733990148 339.61853154084804,180.6768472906404 C 339.1456049638057,180.38226600985223 338.8899689762152,180.30541871921184 338.3147880041366,180.30541871921184 C 337.73960703205796,180.30541871921184 337.48397104446747,180.22857142857146 336.9982626680456,179.92118226600988 C 336.46142709410555,179.5753694581281 336.2824819027922,179.5369458128079 335.400537745605,179.5369458128079 C 334.3907755946226,179.5369458128079 333.76446742502594,179.3832512315271 333.1765046535678,178.99901477832515 C 332.93365046535683,178.84532019704434 332.4607238883144,178.76847290640396 331.3359255429163,178.73004926108376 C 330.4923267838677,178.69162561576357 329.46978283350575,178.60197044334979 329.0479834539815,178.52512315270937 C 328.6261840744571,178.44827586206898 328.0637849017581,178.3586206896552 327.79536711478806,178.3073891625616 C 327.53973112719757,178.26896551724138 327.2840951396071,178.1793103448276 327.24574974146856,178.1152709359606 C 327.1562771458118,177.9615763546798 311.1279007238884,177.9615763546798 311.0384281282317,178.1152709359606 C 310.8850465356774,178.3586206896552 309.26175801447783,178.65320197044338 307.510651499483,178.74285714285716 C 306.70539813857295,178.79408866995075 305.925708376422,178.89655172413794 305.7723267838677,178.98620689655175 C 305.18436401240956,179.33201970443352 304.32798345398146,179.5369458128079 303.5227300930714,179.5369458128079 C 302.7941675284385,179.5369458128079 302.57687693898663,179.5881773399015 302.0528231644261,179.92118226600988 C 301.55433298862465,180.24137931034485 301.3242605997932,180.30541871921184 300.6212616339194,180.30541871921184 C 299.87991726990697,180.31822660098524 299.7265356773527,180.35665024630543 299.33029989658746,180.6896551724138 C 299.06188210961744,180.9330049261084 298.7423371251293,181.07389162561577 298.49948293691835,181.07389162561577 C 298.07768355739404,181.07389162561577 297.4130299896588,181.29162561576356 296.9017580144778,181.58620689655174 C 296.4799586349535,181.82955665024633 295.73861427094107,182.09852216748772 295.4701964839711,182.09852216748772 C 295.34237849017586,182.09852216748772 294.97170630816964,182.2650246305419 294.63937952430206,182.48275862068968 C 294.24314374353673,182.73891625615767 293.8724715615306,182.86699507389164 293.55292657704246,182.86699507389164 C 293.18225439503624,182.86699507389164 293.0416546018615,182.93103448275863 292.92661840744574,183.14876847290643 C 292.72210961737335,183.5458128078818 292.56872802481905,183.63546798029557 292.0446742502586,183.63546798029557 C 291.73791106515,183.64827586206897 291.45671147880046,183.76354679802958 291.14994829369186,184.01970443349757 C 290.90709410548095,184.23743842364533 290.6258945191314,184.40394088669953 290.5108583247157,184.40394088669953 C 290.39582213029996,184.40394088669953 290.03793174767327,184.5704433497537 289.7056049638056,184.7881773399015 C 289.373278179938,184.9931034482759 289.04095139607034,185.17241379310346 288.9770423991728,185.17241379310346 C 288.9003516028956,185.17241379310346 288.59358841778703,185.37733990147785 288.2612616339194,185.62068965517244 C 287.9417166494313,185.864039408867 287.51991726990695,186.1073891625616 287.3409720785936,186.15862068965518 C 287.1492450879008,186.19704433497537 286.86804550155125,186.36354679802957 286.71466390899695,186.53004926108375 C 286.56128231644266,186.69655172413795 286.2800827300931,186.86305418719215 286.0755739400207,186.91428571428574 C 285.8838469493279,186.96551724137933 285.60264736297836,187.1064039408867 285.46204756980353,187.22167487684732 C 285.3214477766288,187.3497536945813 284.9379937952431,187.61871921182268 284.61844881075496,187.82364532019707 C 283.35305067218206,188.6049261083744 281.9470527404344,189.56551724137933 280.694436401241,190.51330049261085 C 277.93356773526375,192.6009852216749 277.3456049638056,193.07487684729065 276.4380972078594,193.99704433497539 C 275.9140434332989,194.52216748768475 275.2749534643227,195.0857142857143 275.0193174767322,195.2650246305419 C 274.7508996897622,195.4315270935961 274.50804550155124,195.67487684729065 274.46970010341266,195.80295566502465 C 274.4313547052741,195.91822660098524 274.25240951396074,196.08472906403944 274.086246122027,196.16157635467982 C 273.90730093071363,196.2384236453202 273.7667011375388,196.3665024630542 273.7667011375388,196.4433497536946 C 273.7667011375388,196.66108374384237 271.8110858324716,198.67192118226603 271.5298862461221,198.74876847290642 C 271.3892864529473,198.7871921182266 271.24868665977255,198.92807881773402 271.2231230610135,199.0689655172414 C 271.21034126163397,199.19704433497537 271.0058324715616,199.49162561576355 270.77576008273013,199.72216748768474 C 270.55846949327827,199.93990147783254 270.31561530506724,200.19605911330052 270.2389245087901,200.2857142857143 C 270.1494519131335,200.3753694581281 269.9960703205792,200.5290640394089 269.8810341261634,200.65714285714287 C 269.3953257497415,201.14384236453205 268.5261633919339,202.21970443349755 268.5261633919339,202.33497536945814 C 268.5261633919339,202.39901477832512 268.4111271975181,202.48866995073894 268.2705274043434,202.52709359605913 C 268.1299276111686,202.57832512315272 267.8998552223372,202.8216748768473 267.77203722854193,203.0778325123153 C 267.28632885212,204.02561576354682 265.8547673216133,204.05123152709362 265.62469493278184,203.1162561576355 C 265.58634953464326,202.9369458128079 265.42018614270944,202.6551724137931 265.2540227507757,202.50147783251234 C 265.0878593588418,202.34778325123153 264.92169596690803,202.06600985221675 264.87056876938993,201.86108374384239 C 264.81944157187183,201.6689655172414 264.61493278179944,201.31034482758622 264.41042399172704,201.07980295566503 C 264.2186970010342,200.84926108374387 264.05253360910035,200.5674876847291 264.05253360910035,200.45221674876848 C 264.05253360910035,200.3497536945813 263.88637021716653,200.05517241379312 263.6690796277146,199.81182266009853 C 263.4645708376422,199.58128078817737 263.28562564632887,199.2738916256158 263.28562564632887,199.14581280788178 C 263.28562564632887,199.0305418719212 263.13224405377457,198.7871921182266 262.9532988624613,198.60788177339904 C 262.5954084798346,198.27487684729064 261.9946639089969,197.42955665024633 261.67511892450887,196.78916256157638 C 261.5600827300931,196.55862068965519 261.3044467425026,196.20000000000002 261.1255015511893,195.96945812807883 C 260.94655635987596,195.73891625615764 260.62701137538784,195.32906403940888 260.4097207859359,195.0344827586207 C 260.2052119958635,194.73990147783252 259.7834126163392,194.22758620689658 259.4894312306102,193.8689655172414 C 259.1826680455016,193.52315270935964 258.93981385729063,193.17733990147784 258.93981385729063,193.10049261083745 C 258.93981385729063,193.03645320197046 258.8119958634954,192.92118226600988 258.64583247156156,192.84433497536946 C 258.49245087900727,192.78029556650247 258.2623784901758,192.56256157635468 258.1345604963806,192.3704433497537 C 257.62328852119964,191.56354679802956 257.26539813857295,191.1536945812808 256.7669079627715,190.79507389162563 C 256.48570837642194,190.59014778325124 256.14059979317483,190.24433497536947 256.0127817993796,190.0394088669951 C 255.88496380558433,189.8344827586207 255.56541882109622,189.48866995073894 255.28421923474667,189.29655172413794 C 255.01580144777665,189.09162561576358 254.55565667011382,188.69458128078819 254.27445708376428,188.4128078817734 C 253.68649431230614,187.81083743842368 251.70531540847986,186.29950738916259 251.1429162357808,186.0049261083744 C 250.9256256463289,185.8896551724138 250.7594622543951,185.74876847290642 250.7594622543951,185.68472906403943 C 250.7594622543951,185.62068965517244 250.54217166494317,185.45418719211824 250.26097207859362,185.31330049261086 C 249.9925542916236,185.17241379310346 249.6091003102379,184.91625615763547 249.4045915201655,184.7497536945813 C 249.20008273009313,184.5832512315271 248.880537745605,184.40394088669953 248.70159255429166,184.36551724137934 C 248.52264736297832,184.31428571428572 248.3053567735264,184.13497536945815 248.22866597724925,183.95566502463055 C 248.12641158221305,183.7251231527094 247.9858117890383,183.63546798029557 247.7173940020683,183.63546798029557 C 247.51288521199592,183.63546798029557 247.18055842812828,183.4817733990148 246.92492244053778,183.2512315270936 C 246.68206825232681,183.04630541871924 246.33695966907968,182.87980295566504 246.15801447776633,182.86699507389164 C 245.97906928645298,182.86699507389164 245.63396070320584,182.70049261083744 245.39110651499487,182.50837438423648 C 245.1482523267839,182.31625615763548 244.688107549121,182.0729064039409 244.36856256463292,181.9704433497537 C 244.04901758014483,181.86798029556653 243.53774560496385,181.62463054187194 243.23098241985525,181.43251231527094 C 242.89865563598764,181.22758620689658 242.47685625646335,181.07389162561577 242.23400206825238,181.07389162561577 C 241.9911478800414,181.07389162561577 241.5693485005171,180.920197044335 241.2114581178904,180.6896551724138 C 240.7768769389866,180.40788177339903 240.4573319544985,180.30541871921184 240.02275077559466,180.30541871921184 C 239.56260599793177,180.30541871921184 239.34531540847988,180.22857142857146 239.00020682523274,179.92118226600988 C 238.616752843847,179.6009852216749 238.45058945191317,179.54975369458128 237.7859358841779,179.5369458128079 C 237.05737331954504,179.5369458128079 236.20099276111688,179.31921182266012 235.6258117890383,178.98620689655175 C 235.47243019648403,178.89655172413794 234.80777662874874,178.79408866995075 234.14312306101348,178.74285714285716 C 232.58374353671152,178.64039408866998 231.01158221303,178.3330049261084 230.87098241985524,178.1152709359606 C 230.7815098241986,177.9615763546798 216.54258531540853,177.9615763546798 216.45311271975186,178.1152709359606"/>
</svg>
