<svg xmlns="http://www.w3.org/2000/svg" viewBox="-34.194 -107.819 488.485 488.485">
<g transform="translate(-37.666945,391.901468) scale(0.100000,-0.100000)"
fill="#000" stroke="none">
<path d="M3932 3884 c-109 -93 -139 -242 -87 -434 18 -67 106 -242 168 -332
235 -347 232 -342 276 -453 5 -11 13 -31 18 -45 19 -45 33 -145 33 -228 0
-147 -53 -289 -153 -412 -74 -91 -86 -90 -75 2 10 85 1 287 -14 338 -26 82
-63 178 -87 220 -13 25 -29 54 -35 65 -41 77 -202 235 -290 284 -17 10 -51 29
-76 43 -54 30 -182 72 -264 87 -76 14 -334 14 -428 0 -220 -32 -207 -29 -373
-70 -86 -21 -229 -70 -236 -81 -4 -6 -3 -25 2 -42 5 -17 9 -74 9 -127 0 -285
-201 -526 -497 -593 -58 -13 -132 -16 -385 -16 l-314 0 -88 -96 c-92 -99 -154
-173 -266 -314 -72 -91 -131 -130 -199 -130 -60 0 -121 -37 -143 -88 -28 -61
-48 -146 -48 -197 0 -82 -158 -76 1701 -73 l1654 3 35 21 c19 11 55 32 80 46
105 59 180 106 211 130 19 15 66 51 104 80 84 65 190 168 231 223 16 22 37 49
46 59 22 24 110 190 122 231 15 48 19 452 5 505 -7 25 -15 50 -19 55 -4 6 -15
33 -25 60 -10 28 -28 68 -40 90 -13 22 -42 78 -67 125 -24 47 -104 171 -178
275 -74 105 -148 215 -166 247 -80 142 -122 333 -95 438 5 19 12 59 15 88 6
64 -4 66 -62 16z m-2672 -2043 c52 -27 80 -74 80 -132 0 -44 -4 -53 -39 -88
-50 -50 -104 -62 -159 -34 -108 56 -109 198 -2 254 19 11 46 19 60 19 14 0 41
-8 60 -19z"/>
<path d="M1615 3106 c-91 -19 -130 -42 -200 -120 -75 -83 -126 -178 -156 -291
-17 -66 -20 -108 -20 -242 1 -89 4 -169 7 -177 5 -14 39 -16 261 -16 155 0
272 4 297 11 344 92 473 491 233 716 -57 53 -171 107 -258 122 -77 13 -84 13
-164 -3z"/>
</g>
</svg>
