<?xml version="1.0" encoding="UTF-8" standalone="no"?><!DOCTYPE svg PUBLIC "-//W3C//DTD SVG 1.1//EN" "http://www.w3.org/Graphics/SVG/1.1/DTD/svg11.dtd"><svg width="100%" height="100%" viewBox="0 0 2134 2134" version="1.1" xmlns="http://www.w3.org/2000/svg" xmlns:xlink="http://www.w3.org/1999/xlink" xml:space="preserve" xmlns:serif="http://www.serif.com/" style="fill-rule:evenodd;clip-rule:evenodd;stroke-linejoin:round;stroke-miterlimit:2;"><path d="M341.667,866.667c0,-354.167 -220.833,-154.167 -220.833,-375c0,-283.333 845.833,-362.5 879.167,-362.5c137.5,0 137.5,33.333 154.167,158.333c0,41.667 0,125 58.333,125c83.333,0 137.5,-283.333 450,-283.333c241.667,0 400,179.167 400,416.667c0,241.667 -204.167,433.333 -441.667,433.333c-233.333,0 -300,-204.167 -391.667,-204.167c-100,0 -79.167,241.667 -79.167,304.167c0,108.333 8.333,258.333 25,395.833c20.833,158.333 295.833,58.333 295.833,275c0,225 -316.667,245.833 -712.5,245.833c-162.5,0 -658.333,4.167 -658.333,-241.667c0,-150 162.5,-150 204.167,-275c25,-87.5 37.5,-295.833 37.5,-395.833l0,-216.667Z" style="fill:#3232c5;fill-rule:nonzero;"/></svg>