<svg height="512" viewBox="2.474 28.186 307.556 241.509" width="512" xmlns="http://www.w3.org/2000/svg"><path d="m244.379 32.976c-29.758 9.869-38.556 46.904-16.404 69.062 9.184 9.186 23.252 13.668 35.704 11.375 33.215-6.121 46.351-44.965 23.477-69.42-10.487-11.211-28.332-15.807-42.777-11.017m-52.542 81.292c-9.66 2.375-22.984 8.651-30.747 14.484-11.287 8.479-29.419 27.228-40.04 41.402-11.995 16.01-19.943 23.98-27.97 28.047-11.043 5.595-22.841 2.685-28.27-6.977-5.757-10.239-3.7-26.909 5.931-48.099 2.719-5.981 5.205-11.484 5.526-12.229.458-1.065-6.14-1.353-30.979-1.353h-31.559l-2.065 4.817c-6.438 15.022-9.181 29.744-9.186 49.331-.004 14.177.372 18.101 2.427 25.244 9.371 32.592 34.71 53.496 69.005 56.932 38.225 3.828 64.863-11.349 102.432-58.355 13.861-17.345 19.593-23.028 26.294-26.071 8.176-3.713 19.221-2.124 25.419 3.656 11.098 10.352 9.651 30.601-4.203 58.784-2.951 6.001-5.365 11.241-5.365 11.641s14.611.729 32.467.729h32.467l2.061-4.062c3.619-7.133 8.639-24.483 9.973-34.462 1.655-12.39.707-30.935-2.158-42.158-1.216-4.766-4.514-13.294-7.329-18.952-4.33-8.701-6.713-11.882-15.453-20.623-12.062-12.064-22.381-18.085-37-21.589-11.666-2.797-30.611-2.859-41.678-.137" fill-rule="evenodd"/></svg>