<svg xmlns="http://www.w3.org/2000/svg" viewBox="0 0 447 447" width="447" height="447">
  <title>WiFiman</title>
  <g transform="translate(0,447) scale(0.1,-0.1)" fill="#1a1a1a" stroke="none">
    <path d="M1315 3099 c-133 -23 -227 -44 -299 -66 -95 -30 -266 -109 -333 -154
-71 -48 -244 -178 -275 -207 -16 -14 -28 -31 -28 -36 0 -6 19 -32 43 -57 23
-26 75 -86 116 -133 40 -47 78 -86 83 -86 6 0 25 12 43 28 37 30 76 60 110 82
58 38 193 120 199 120 4 0 23 10 44 23 55 35 155 73 267 104 94 26 112 28 300
27 200 -1 253 -7 450 -51 39 -9 108 -31 154 -49 47 -19 90 -34 97 -34 7 0 54
20 106 45 51 25 120 50 153 56 33 7 63 15 67 18 5 4 -99 53 -230 108 -264 113
-400 168 -512 206 -110 38 -292 67 -407 66 -54 -1 -120 -5 -148 -10z"/>
    <path d="M3235 2937 c-27 -7 -60 -19 -71 -25 -42 -23 -107 -108 -146 -190 -39
-84 -39 -84 -67 -53 -17 18 -39 31 -53 31 -13 0 -33 -7 -45 -15 -12 -8 -24
-29 -28 -45 -6 -26 4 -48 71 -155 42 -68 93 -139 113 -158 20 -19 55 -41 79
-51 23 -9 70 -16 104 -16 82 0 138 28 180 88 17 25 46 82 63 126 27 71 35 81
58 84 27 3 34 16 40 72 2 24 -1 25 -68 31 -38 3 -79 10 -91 17 -11 6 -26 18
-34 26 -11 14 -1 16 98 16 90 0 114 3 132 18 21 17 39 76 40 134 0 25 -6 29
-67 49 -84 26 -236 34 -308 16z"/>
    <path d="M2424 2576 c-49 -25 -123 -70 -164 -100 -41 -31 -124 -104 -184 -163
-111 -110 -300 -336 -317 -380 -5 -13 -9 -40 -9 -58 0 -28 6 -37 30 -50 26
-13 40 -13 132 0 129 18 299 56 403 91 44 14 125 48 180 75 103 49 182 110
170 129 -5 8 -79 9 -248 5 -180 -4 -236 -3 -217 6 14 6 63 18 110 26 52 10
145 17 241 17 116 1 162 -3 182 -13 15 -8 29 -23 33 -33 3 -10 -2 -30 -10 -44
-28 -42 -126 -111 -246 -173 -98 -50 -222 -101 -372 -152 -34 -12 -58 -42 -58
-73 0 -7 -21 -33 -48 -57 -43 -41 -83 -62 -279 -150 -40 -18 -73 -38 -73 -45
0 -7 15 -16 33 -20 17 -4 118 -7 222 -7 187 1 323 14 500 49 166 33 383 99
550 167 121 49 151 65 182 94 18 17 36 48 43 74 11 37 9 69 -9 204 -23 166
-31 185 -75 185 -41 0 -148 60 -207 117 -63 60 -131 155 -176 248 -23 46 -33
57 -63 65 -19 5 -65 10 -101 10 -59 0 -77 -5 -155 -44z"/>
    <path d="M3785 2494 c-121 -35 -237 -68 -258 -74 -32 -9 -42 -19 -64 -66 -14
-30 -46 -77 -70 -104 -31 -34 -57 -53 -86 -62 -23 -6 -43 -12 -44 -13 -4 -2
14 -100 33 -192 9 -40 20 -73 25 -73 14 0 207 111 295 170 147 98 219 154 290
225 39 38 85 95 102 125 36 62 42 115 15 122 -10 3 -117 -24 -238 -58z"/>
    <path d="M1585 2524 c-107 -16 -172 -28 -263 -50 -56 -13 -110 -28 -120 -33
-9 -5 -57 -28 -107 -51 -49 -23 -106 -53 -125 -68 -19 -15 -57 -42 -85 -61
-52 -36 -74 -59 -75 -77 0 -14 17 -34 137 -161 53 -57 103 -103 112 -103 9 0
43 16 75 36 186 112 333 161 514 171 112 6 112 6 184 90 74 88 250 253 269
253 6 0 9 8 7 18 -2 12 -17 19 -53 24 -64 8 -431 18 -470 12z"/>
    <path d="M1540 1900 c-84 -11 -164 -56 -282 -159 -16 -13 -28 -30 -28 -37 0
-7 8 -19 18 -26 11 -7 58 -58 106 -113 48 -55 95 -104 103 -109 10 -5 28 -2
52 9 20 10 101 46 179 81 130 58 204 101 224 129 4 5 4 12 0 16 -4 3 -45 11
-91 17 -55 8 -98 20 -127 37 -24 14 -49 35 -55 46 -6 12 -8 36 -4 56 4 21 2
40 -6 49 -6 8 -17 13 -23 13 -6 -1 -36 -5 -66 -9z"/>
  </g>
</svg>
